<?xml version="1.0" encoding="UTF-8"?>
<svg width="300mm" height="300mm" version="1.1" viewBox="0 0 300 300" xmlns="http://www.w3.org/2000/svg" xmlns:cc="http://creativecommons.org/ns#" xmlns:dc="http://purl.org/dc/elements/1.1/" xmlns:rdf="http://www.w3.org/1999/02/22-rdf-syntax-ns#">
 <metadata>
  <rdf:RDF>
   <cc:Work rdf:about="">
    <dc:format>image/svg+xml</dc:format>
    <dc:type rdf:resource="http://purl.org/dc/dcmitype/StillImage"/>
    <dc:title/>
   </cc:Work>
  </rdf:RDF>
 </metadata>
 <g transform="matrix(.921 0 0 .921 17.5 14.23)">
  <path d="m236-1.877c15.24 0 29.82 12.44 27.51 27.51l-37.38 243.6c-2.312 15.06-12.27 27.51-27.51 27.51h-122.3c-15.24 0-25.2-12.44-27.51-27.51l-37.38-243.6c-2.312-15.06 12.27-27.51 27.51-27.51z" fill="#ffe6cc"/>
  <path transform="scale(.2646)" d="m432.2 441.4v170.3h24.88l4.932-13.45h2.016c3.586 4.782 7.696 8.593 12.33 11.43 4.782 2.839 11.06 4.258 18.83 4.258 13 0 23.38-5.453 31.15-16.36 7.919-11.06 11.88-26.82 11.88-47.29s-3.884-36.09-11.65-46.84c-7.77-10.91-18.01-16.36-30.71-16.36-7.621 0-14.05 1.644-19.28 4.932-5.08 3.287-9.265 7.694-12.55 13.22h-1.119c0.2988-3.287 0.5224-7.023 0.6719-11.21 0.2988-4.184 0.4473-8.143 0.4473-11.88v-40.79zm-201.9 45.72c-7.621 0-13.97 1.569-19.05 4.707-4.931 3.138-9.114 7.62-12.55 13.45h-1.568l-4.482-15.91h-25.78v176.2h31.83v-49.31c0-5.379-0.5224-11.66-1.568-18.83h1.568c3.287 4.782 7.397 8.743 12.33 11.88 5.08 3.138 11.43 4.705 19.05 4.705 12.7 0 23.01-5.453 30.93-16.36 7.919-11.06 11.88-26.75 11.88-47.07 0-20.62-3.886-36.31-11.66-47.07-7.621-10.91-17.93-16.36-30.93-16.36zm442.9 0c-17.18 0-30.63 5.453-40.35 16.36-9.713 10.76-14.57 26.67-14.57 47.74 0 21.52 4.482 37.36 13.45 47.52 9.115 10.16 22.27 15.24 39.45 15.24 7.322 0 13.6-0.746 18.83-2.24 5.379-1.494 10.39-3.811 15.02-6.949v-27.12c-4.632 3.138-9.488 5.603-14.57 7.396-4.931 1.644-10.31 2.465-16.14 2.465-7.621 0-13.52-2.988-17.71-8.965-4.034-5.977-6.051-15.17-6.051-27.57 0-25.1 7.846-37.66 23.54-37.66 4.034 1e-5 8.067 0.5995 12.1 1.795 4.034 1.195 8.368 2.838 13 4.93l9.189-24.88c-4.483-2.391-9.562-4.334-15.24-5.828-5.678-1.494-12.33-2.24-19.95-2.24zm94.58 0c-13.6 0-24.43 2.913-32.5 8.74-7.919 5.828-11.88 14.35-11.88 25.55 0 9.862 2.466 17.56 7.396 23.09 4.931 5.379 12.4 10.38 22.41 15.02 7.023 3.138 12.18 5.754 15.46 7.846 3.287 1.943 5.454 3.81 6.5 5.604 1.046 1.644 1.568 3.436 1.568 5.379 0 3.437-1.27 6.126-3.811 8.068-2.54 1.943-6.648 2.914-12.33 2.914-5.678 0-11.88-0.9716-18.6-2.914-6.724-1.942-12.85-4.408-18.38-7.396v27.79c5.529 2.54 11.21 4.333 17.03 5.379 5.977 1.195 12.7 1.793 20.17 1.793 15.54 0 27.35-3.287 35.41-9.861 8.069-6.575 12.1-16.06 12.1-28.46 0-6.873-1.27-12.55-3.811-17.04-2.54-4.632-6.126-8.516-10.76-11.65-4.632-3.287-10.09-6.426-16.36-9.414-6.425-2.839-11.28-5.154-14.57-6.947-3.138-1.942-5.305-3.662-6.5-5.156-1.046-1.644-1.568-3.436-1.568-5.379 0-5.828 4.409-8.74 13.22-8.74 5.08 0 10.01 0.8212 14.79 2.465 4.782 1.644 9.713 3.735 14.79 6.275l9.412-23.31c-6.575-3.287-13-5.678-19.28-7.172-6.276-1.644-12.92-2.465-19.95-2.465zm101.3 0c-13.6 0-24.43 2.913-32.5 8.74-7.919 5.828-11.88 14.35-11.88 25.55 0 9.862 2.466 17.56 7.396 23.09 4.931 5.379 12.4 10.38 22.41 15.02 7.023 3.138 12.18 5.754 15.46 7.846 3.287 1.943 5.454 3.81 6.5 5.604 1.046 1.644 1.568 3.436 1.568 5.379 0 3.437-1.27 6.126-3.811 8.068-2.54 1.943-6.648 2.914-12.33 2.914s-11.88-0.9716-18.6-2.914c-6.724-1.942-12.85-4.408-18.38-7.396v27.79c5.529 2.54 11.21 4.333 17.03 5.379 5.977 1.195 12.7 1.793 20.17 1.793 15.54 0 27.34-3.287 35.41-9.861 8.069-6.575 12.1-16.06 12.1-28.46 0-6.873-1.27-12.55-3.811-17.04-2.54-4.632-6.126-8.516-10.76-11.65-4.632-3.287-10.09-6.426-16.36-9.414-6.425-2.839-11.28-5.154-14.57-6.947-3.138-1.942-5.305-3.662-6.5-5.156-1.046-1.644-1.568-3.436-1.568-5.379 0-5.828 4.409-8.74 13.22-8.74 5.08 0 10.01 0.8212 14.79 2.465 4.782 1.644 9.713 3.735 14.79 6.275l9.412-23.31c-6.575-3.287-13-5.678-19.28-7.172-6.276-1.644-12.92-2.465-19.95-2.465zm-571.8 2.24v79.79c0 15.09 3.437 26.37 10.31 33.84 7.023 7.322 16.73 10.98 29.14 10.98 7.023 0 13.52-1.419 19.5-4.258 5.977-2.988 10.68-7.546 14.12-13.67h1.793l4.035 15.69h24.65v-122.4h-31.83v59.17c0 12.55-1.567 22.19-4.705 28.91-3.138 6.724-9.266 10.09-18.38 10.09-5.977 0-10.31-2.242-13-6.725-2.54-4.483-3.811-11.21-3.811-20.17v-71.28zm-77.1 23.54c13.45 0 20.17 12.48 20.17 37.43 0 24.8-6.649 37.21-19.95 37.21-8.069 0-13.75-2.988-17.04-8.965-3.138-6.126-4.707-15.24-4.707-27.35v-4.482c0.1494-11.51 1.794-20.02 4.932-25.55 3.287-5.529 8.816-8.293 16.59-8.293zm265.4 0.2246c6.425 0 11.36 3.063 14.79 9.189 3.586 6.126 5.379 15.32 5.379 27.57 0 12.55-1.793 22.04-5.379 28.46-3.437 6.276-8.293 9.414-14.57 9.414-8.069 0-13.75-3.063-17.04-9.189-3.138-6.126-4.707-15.24-4.707-27.35v-4.482c0.1494-11.06 1.794-19.43 4.932-25.1 3.138-5.678 8.667-8.516 16.59-8.516zm92.79 64.33c-5.529 0-10.01 1.494-13.45 4.482-3.437 2.839-5.154 7.546-5.154 14.12 0 6.276 1.718 10.91 5.154 13.9 3.586 2.988 8.068 4.482 13.45 4.482 5.23 0 9.563-1.494 13-4.482 3.586-2.988 5.381-7.621 5.381-13.9 0-6.575-1.795-11.28-5.381-14.12-3.437-2.988-7.77-4.482-13-4.482zm-519.1-263.4h985.9v478.8h-913z" fill="#f93" />
 </g>
</svg>
