<?xml version="1.0" encoding="UTF-8"?>
<svg width="300mm" height="300mm" version="1.1" viewBox="0 0 300 300" xmlns="http://www.w3.org/2000/svg" xmlns:cc="http://creativecommons.org/ns#" xmlns:dc="http://purl.org/dc/elements/1.1/" xmlns:rdf="http://www.w3.org/1999/02/22-rdf-syntax-ns#">
 <metadata>
  <rdf:RDF>
   <cc:Work rdf:about="">
    <dc:format>image/svg+xml</dc:format>
    <dc:type rdf:resource="http://purl.org/dc/dcmitype/StillImage"/>
    <dc:title/>
   </cc:Work>
  </rdf:RDF>
 </metadata>
 <g transform="translate(-.004003 2.63)">
  <path d="m234.9 29.96c14.04 0 27.46 11.46 25.34 25.34l-34.43 184.1c-2.129 13.87-11.3 25.34-25.34 25.34h-112.6c-14.04 0-23.21-11.46-25.34-25.34l-34.43-184.1c-2.129-13.87 11.3-25.34 25.34-25.34z" fill="#ffe6cc" stroke-width=".921"/>
  <path transform="scale(.2646)" d="m120.7 343 82.38 441h825.7v-441zm372.8 117.3s-8.148 28.04 0 37.57c6.434 7.484 29.32 4.535 29.32 4.535 11.7 0 21.13 5.026 28.29 15.08 7.153 9.903 10.73 24.26 10.73 43.12 0 18.86-3.648 33.38-10.94 43.58-7.157 10.02-16.72 15.04-28.69 15.04 0 0-44.61 13.66-46.56-11.38l-11.46-147.5zm-250.8 33.24c11.41-0.2895 28.52 8.904 35.57 8.904 11.97 0 21.47 5.026 28.49 15.08 7.16 9.903 10.74 24.38 10.74 43.35 0 18.71-3.648 33.18-10.94 43.35-7.295 10.05-16.79 15.08-28.49 15.08 0 0-22.01-7.37-28.9-0.6426-11.46 11.23 0 48.12 0 48.12h-29.32l11.87-162.3c0.5882-8.04 5.003-10.79 10.98-10.94zm116.7 7.879c4.029 0.0929 7.701 0.903 9.861 3.064 15.48 15.5 0 65.69 0 65.69 0 8.239 1.17 14.44 3.51 18.56 2.478 4.12 6.469 6.199 11.97 6.199 8.395 0 14.04-3.1 16.93-9.299 2.89-6.199 4.334-15.08 4.334-26.61 0 0-9.878-44.64 0-54.5l29.32-0.0391s26.57 86.14 0 112.7c-5.351 5.367-15.14 0-22.71 0-12.13 0.378-36.33 2.078-36.33 2.078-11.43 0-20.37-3.363-26.84-10.13-6.33-6.879-9.496-17.27-9.496-31.14v-73.51s10.59-3.269 19.45-3.064zm509.7 1.008c6.323 0.0139 14.62 1.027 20.34 16.33 4.099 10.96-4.674 9.77-9.078 8.258-4.403-1.512-8.944-2.268-13.62-2.268-8.115 0-14.23 3.687-8.461 12.91 4.966 7.929 11.22 8.636 17.14 11.24 5.775 2.759 10.8 5.633 15.07 8.656 4.268 2.91 7.571 6.463 9.91 10.73 2.34 4.158 3.51 9.374 3.51 15.69 0 11.45-3.712 20.18-11.14 26.23-7.433 6.047-18.3 9.07-32.62 9.07-6.88 0-19.11 0.3108-17.96-13.49 1.015-12.13 12.52-9.184 17.76-9.184 5.233 0 11.63-1.139 9.395-11.47-2.497-11.55-9.731-13.1-16.2-16.01-9.22-4.271-16.1-8.883-20.64-13.83-4.541-5.102-6.812-12.17-6.812-21.28 0-10.32 3.648-18.14 10.94-23.51 7.425-5.361 17.39-8.043 29.89-8.049 0.8094 0 1.673-0.0196 2.576-0.0176zm-183 0.0176c7.018 0 17.84 0.7938 15.17 13.91-2.553 12.54-10.63 10.24-14.34 10.24-14.46 0-21.68 11.56-21.68 34.66 0 11.45 1.859 19.92 5.574 25.4 3.859 5.518 9.293 8.277 16.31 8.277 5.37 0 13.79-4.297 21.57 6.803 7.019 10.01-2.169 14.1-7.123 15.5-4.817 1.361-10.6 2.041-17.34 2.041-15.82 0-27.94-4.686-36.34-14.02-8.26-9.373-12.39-23.96-12.39-43.77 0-19.43 4.474-34.06 13.42-44 8.953-10.02 21.34-15.04 37.16-15.04zm85.28 0.5156c3.299 0.0188 6.945 0.2158 11 0.6172 15.08 1.494 25 7.91 15.78 15.59-12.9 10.75-20.09 5.574-24.77 5.574-8.115 0-14.23 3.687-8.461 12.91 4.964 7.929 11.22 8.636 17.13 11.24 5.775 2.759 10.8 5.633 15.07 8.656 4.268 2.91 7.573 6.463 9.912 10.73 2.34 4.158 3.51 9.374 3.51 15.69 0 11.45-3.713 20.18-11.14 26.23-7.424 6.047-18.3 9.07-32.62 9.07-6.88 0-13.07-0.5289-18.58-1.625-5.361-0.9827-15.53-5.444-7.221-14.34 11.27-12.07 20.37-6.709 25.6-6.709 5.233 0 10.55-0.4216 12.39-8.883 1.67-7.682-1.928-9.561-4.955-11.38-3.021-1.928-7.77-4.308-14.24-7.219-9.22-4.271-16.1-8.883-20.64-13.83-4.541-5.102-6.812-12.17-6.812-21.28 0-10.32 3.648-18.14 10.94-23.51 6.039-4.361 13.81-7.614 28.1-7.533zm-502.5 23.22c-7.16 0-12.25 2.532-15.28 7.635-2.89 5.102-4.405 12.93-4.543 25.61 0 13.21 1.444 21.6 4.334 27.23 3.03 5.518 8.263 8.277 15.7 8.277 12.25 0 18.38-11.45 18.38-34.28 0-22.98-12.38-34.47-18.58-34.47h-2e-3zm244.4 0.3789c-7.291 0-12.33 2.646-15.2 7.861-2.89 5.216-4.405 12.93-4.543 24.16 0 14.24 1.446 22.63 4.336 28.26 3.03 5.669 8.263 8.467 15.7 8.467 5.781 0 10.25-2.872 13.42-8.654 3.303-5.934 4.955-14.66 4.955-26.23 0-11.26-1.652-19.73-4.955-25.4-3.159-5.632-10.67-8.465-13.71-8.465zm85.55 59.26c4.817 0 8.809 1.36 11.97 4.119 3.303 2.646 4.955 6.955 4.955 13 0 5.783-1.652 10.05-4.955 12.81-3.166 2.759-7.157 4.121-11.97 4.121-4.957 0-9.086-1.362-12.39-4.121-3.165-2.759-4.746-7.03-4.746-12.81 0-6.047 1.58-10.39 4.746-13 3.168-2.759 7.296-4.119 12.39-4.119z" fill="#f93" opacity=".998" stroke-width=".9211"/>
 </g>
</svg>
