<?xml version="1.0" encoding="UTF-8"?>
<svg width="300mm" height="300mm" version="1.1" viewBox="0 0 300 300" xmlns="http://www.w3.org/2000/svg" xmlns:cc="http://creativecommons.org/ns#" xmlns:dc="http://purl.org/dc/elements/1.1/" xmlns:rdf="http://www.w3.org/1999/02/22-rdf-syntax-ns#">
 <metadata>
  <rdf:RDF>
   <cc:Work rdf:about="">
    <dc:format>image/svg+xml</dc:format>
    <dc:type rdf:resource="http://purl.org/dc/dcmitype/StillImage"/>
   </cc:Work>
  </rdf:RDF>
 </metadata>
 <g transform="translate(1.5457 .02)">
  <path d="m28.758 93.388 10.156-9.2636 3.8448 12.187z" fill="#cd9155"/>
  <g transform="translate(-.004003 2.63)">
   <path d="m234.9 29.96c14.04 0 27.46 11.46 25.34 25.34l-34.43 184.1c-2.129 13.87-11.3 25.34-25.34 25.34h-112.6c-14.04 0-23.21-11.46-25.34-25.34l-34.43-184.1c-2.129-13.87 11.3-25.34 25.34-25.34z" fill="#ffeedc" stroke-width=".921"/>
   <path d="m28.762 90.758 21.798 116.69h218.48v-116.69zm100.23 40.979c1.6994 1.9829 4.9305 1.2 7.7581 1.2 3.0958 0 5.5821 1.3362 7.4855 3.9902 1.8838 2.6267 2.8392 6.4192 2.8392 11.41 0 4.9904-0.96581 8.832-2.8947 11.531-1.8943 2.6509-4.4241 3.9796-7.5914 3.9796-2.8577 0-11.804 3.6144-12.32-3.0111-0.32822-4.2147-7.7754-31.022-3.0323-39.028 1.1534-1.947 5.9873-2.778 7.1232-0.0876 1.1271 2.6697-0.82391 8.3177 0.63228 10.017v-1e-5zm-49.403 5.1994c1.8729 2.6359 2.8418 6.451 2.8418 11.47 0 4.9507-0.95746 8.785-2.8947 11.47-1.9225 2.6649-4.4426 3.9902-7.5385 3.9902-2.8431 0-5.8238-1.9501-7.6469-0.17003-3.0323 2.9715 2.5286 12.191 0 12.733-2.516 0.53906-7.2899 2.7593-7.7581 0-2.571-15.152-3.4459-32.379 4.5935-44.4 2.6263-3.927 8.999 0.90935 10.864 0.91228 3.1673 5e-3 5.6592 1.3492 7.5385 3.9941zm17.466 18.842c0.65568 1.0902 1.7117 1.6402 3.1673 1.6402 2.2213 0 3.715-0.82026 4.4797-2.4605 0.7647-1.6403 1.1468-3.9902 1.1468-7.041 0-4.8069-2.6137-11.812 0-14.421 3.4021-3.3959 6.4667-2.2508 7.7581-0.0103 4.1824 7.2564 4.8049 23.175 0 29.82-1.175 1.6251-4.0064-0.0384-6.0091 0-3.2106 0.0616-7.0826 0.54983-9.6129 0.54983-3.0244 0-5.3899-0.88984-7.1019-2.6804-1.6749-1.8202-2.5126-4.5696-2.5126-8.2396 0-6.4836-4.4386-14.725 0-19.451 1.475-1.5705 4.829-1.8218 6.4509-0.40511 4.4797 3.9082 1.3048 16.121 1.3049 17.787 1.33e-4 2.1803 0.30971 3.8211 0.92888 4.9112zm130.71-16.932c-2.1472 0-3.7659 0.97599-2.2388 3.416 1.3134 2.0984 2.9797 2.2608 4.5352 2.9741 1.5394 0.70591 2.8507 1.5004 3.9875 2.2904 1.1224 0.77997 2.0033 1.7101 2.6222 2.8392 0.61917 1.1002 0.92875 2.4804 0.92875 4.1516 0 3.0297-0.9822 5.3396-2.9476 6.9405-1.9668 1.6-4.8422 2.3999-8.6312 2.3999-1.8204 0-5.0565 0.0822-4.7522-3.5694 0.26856-3.2096 3.3128-2.4301 4.6993-2.4301 1.3846 0 3.0771-0.30134 2.4859-3.035-0.66091-3.0561-2.5799-3.4551-4.2865-4.2362-2.4447-1.119-4.2601-2.3504-5.4614-3.6594-1.2015-1.35-1.8024-3.2202-1.8024-5.6307 0-2.7307 0.96526-4.7998 2.8947-6.2208 1.9647-1.4185 4.6014-2.1303 8.2502-2.1327 2.0139-1e-3 6.2329 0.55189 4.5218 5.4105-0.81908 2.3257-3.5681 0.49215-4.8054 0.49215zm-53.312 9.66c0 3.0297 0.49189 5.2708 1.4749 6.7208 1.0211 1.4601 2.4589 2.1901 4.3156 2.1901 1.4209 0 3.6486-1.1368 5.7074 1.8001 1.857 2.6488-0.57392 3.7309-1.8847 4.1013-1.2746 0.36012-2.8048 0.54005-4.5882 0.54005-4.186 0-7.3929-1.2399-9.6156-3.7097-2.1856-2.4801-3.2784-6.3398-3.2784-11.582 0-5.1412 1.1886-9.008 3.5509-11.642 2.3737-2.647 7.1098-6.5383 11.841-2.1396 3.9028 3.6277-0.80439 4.5489-1.7862 4.5491-3.8263 1e-3 -5.7367 3.0594-5.7367 9.1717zm28.606-9.6613c-2.1472 0-3.7657 0.97586-2.2388 3.416 1.313 2.0983 2.9795 2.2613 4.5326 2.9741 1.5391 0.7064 2.8507 1.5004 3.9875 2.2904 1.1224 0.77997 2.0038 1.7101 2.6227 2.8392 0.61917 1.1002 0.92875 2.4804 0.92875 4.1516 0 3.0297-0.98246 5.3396-2.9476 6.9405-1.9644 1.6-4.8422 2.3999-8.6313 2.3999-1.8204 0-3.4562-0.15077-4.9163-0.42997-1.4165-0.27087-4.1092-1.4405-1.9107-3.7944 2.982-3.1937 5.3899-1.7752 6.7738-1.7752 1.3846 0 2.7916-0.11155 3.2784-2.3504 0.44195-2.0326-0.51675-2.519-1.3111-3.0112-0.80611-0.49942-2.061-1.1288-3.7679-1.9102-2.4447-1.119-4.2601-2.3504-5.4614-3.6594-1.2016-1.35-1.8024-3.2202-1.8024-5.6307 0-2.7307 0.96526-4.7998 2.8947-6.2208 1.5979-1.1539 9.8652-9.9985 11.707 0.1921 0.88631 4.9045-2.4995 3.5784-3.7379 3.5784zm-137.59 16.383c0.78123 1.4711 2.1864 2.1901 4.1542 2.1901 3.2414 0 4.8633-3.0297 4.8633-9.0705 0-6.0805-5.4772-9.2795-6.9405-8.11-2.8497 2.283-3.2073 4.4319-3.2247 7.7862-0.01809 3.4944 0.36222 5.7252 1.1476 7.2041zm64.739-13.822c-0.76272 1.3812-1.186 3.4211-1.2021 6.3927-0.0204 3.7678 0.38261 5.9879 1.1473 7.4776 0.80174 1.5 2.1864 2.2404 4.1542 2.2404 1.5296 0 2.7122-0.75994 3.5509-2.2898 0.87397-1.5701 1.3111-3.879 1.3111-6.9405 0-2.9794-0.44928-5.2135-1.3111-6.7208-0.84809-1.4833-2.8233-2.2398-3.6281-2.2397-1.9296 1.8e-4 -3.261 0.70136-4.0223 2.0802zm31.137 18.13c0 1.5302-0.78004 2.6592-1.654 3.3895-0.83773 0.73003-1.5508 1.0904-2.8233 1.0904-1.3116 0-2.4042-0.36039-3.2784-1.0904-0.83746-0.73003-0.8491-1.7453-0.8491-3.2758 0-1.6-0.0217-3.559 3.9194-3.3975 4.0328 0.16525 4.6854 1.6839 4.6854 3.2837z" fill="#f93" opacity=".998" stroke-width=".24372"/>
  </g>
 </g>
</svg>
